<mxfile host="app.diagrams.net" modified="2021-04-05T18:44:43.230Z" agent="5.0 (Macintosh; Intel Mac OS X 10_15_7) AppleWebKit/605.1.15 (KHTML, like Gecko) Version/14.0 Safari/605.1.15" etag="dY4F5x-vblS39SFsuJAU" version="14.5.7" type="github">
  <diagram name="Page-1" id="2ca16b54-16f6-2749-3443-fa8db7711227">
    <mxGraphModel dx="1426" dy="842" grid="1" gridSize="10" guides="1" tooltips="1" connect="1" arrows="1" fold="1" page="1" pageScale="1" pageWidth="1100" pageHeight="850" background="#ffffff" math="0" shadow="0">
      <root>
        <mxCell id="0" />
        <mxCell id="1" parent="0" />
        <mxCell id="2ed32ef02a7f4228-18" style="edgeStyle=orthogonalEdgeStyle;html=1;entryX=0.5;entryY=0;dashed=1;labelBackgroundColor=none;startArrow=ERmandOne;endArrow=ERoneToMany;fontFamily=Verdana;fontSize=12;align=left;" parent="1" source="2ed32ef02a7f4228-2" target="2ed32ef02a7f4228-8" edge="1">
          <mxGeometry relative="1" as="geometry" />
        </mxCell>
        <mxCell id="2ed32ef02a7f4228-19" style="edgeStyle=orthogonalEdgeStyle;html=1;dashed=1;labelBackgroundColor=none;startArrow=ERmandOne;endArrow=ERoneToMany;fontFamily=Verdana;fontSize=12;align=left;exitX=1.011;exitY=0.461;exitDx=0;exitDy=0;exitPerimeter=0;" parent="1" source="2ed32ef02a7f4228-8" edge="1">
          <mxGeometry relative="1" as="geometry">
            <Array as="points">
              <mxPoint x="680" y="432" />
              <mxPoint x="680" y="265" />
            </Array>
            <mxPoint x="695" y="265" as="targetPoint" />
          </mxGeometry>
        </mxCell>
        <mxCell id="2ed32ef02a7f4228-20" style="edgeStyle=orthogonalEdgeStyle;html=1;dashed=1;labelBackgroundColor=none;startArrow=ERmandOne;endArrow=ERoneToMany;fontFamily=Verdana;fontSize=12;align=left;" parent="1" source="2ed32ef02a7f4228-2" target="2ed32ef02a7f4228-11" edge="1">
          <mxGeometry relative="1" as="geometry" />
        </mxCell>
        <mxCell id="2ed32ef02a7f4228-2" value="&lt;div style=&quot;box-sizing: border-box ; width: 100% ; background: #e4e4e4 ; padding: 2px&quot;&gt;Tablename&lt;/div&gt;&lt;table style=&quot;width: 100% ; font-size: 1em&quot; cellpadding=&quot;2&quot; cellspacing=&quot;0&quot;&gt;&lt;tbody&gt;&lt;tr&gt;&lt;td&gt;PK&lt;/td&gt;&lt;td&gt;uniqueId&lt;/td&gt;&lt;/tr&gt;&lt;tr&gt;&lt;td&gt;FK1&lt;/td&gt;&lt;td&gt;foreignKey&lt;/td&gt;&lt;/tr&gt;&lt;tr&gt;&lt;td&gt;&lt;/td&gt;&lt;td&gt;fieldname&lt;/td&gt;&lt;/tr&gt;&lt;tr&gt;&lt;td&gt;&lt;br&gt;&lt;/td&gt;&lt;td&gt;fieldname&lt;br&gt;&lt;/td&gt;&lt;/tr&gt;&lt;tr&gt;&lt;td&gt;FK1&lt;br&gt;&lt;/td&gt;&lt;td&gt;foreignKey&lt;br&gt;&lt;/td&gt;&lt;/tr&gt;&lt;tr&gt;&lt;td&gt;FK1&lt;br&gt;&lt;/td&gt;&lt;td&gt;foreignKey&lt;br&gt;&lt;/td&gt;&lt;/tr&gt;&lt;/tbody&gt;&lt;/table&gt;" style="verticalAlign=top;align=left;overflow=fill;html=1;rounded=0;shadow=0;comic=0;labelBackgroundColor=none;strokeWidth=1;fontFamily=Verdana;fontSize=12" parent="1" vertex="1">
          <mxGeometry x="460" y="100" width="180" height="130" as="geometry" />
        </mxCell>
        <mxCell id="2ed32ef02a7f4228-16" style="edgeStyle=orthogonalEdgeStyle;html=1;labelBackgroundColor=none;startArrow=ERmandOne;endArrow=ERoneToMany;fontFamily=Verdana;fontSize=12;align=left;" parent="1" source="2ed32ef02a7f4228-3" target="2ed32ef02a7f4228-4" edge="1">
          <mxGeometry relative="1" as="geometry" />
        </mxCell>
        <mxCell id="2ed32ef02a7f4228-22" style="edgeStyle=orthogonalEdgeStyle;html=1;exitX=0;exitY=0.75;entryX=1;entryY=0.5;dashed=1;labelBackgroundColor=none;startArrow=ERmandOne;endArrow=ERoneToMany;fontFamily=Verdana;fontSize=12;align=left;" parent="1" source="2ed32ef02a7f4228-8" target="2ed32ef02a7f4228-3" edge="1">
          <mxGeometry relative="1" as="geometry" />
        </mxCell>
        <mxCell id="2ed32ef02a7f4228-3" value="&lt;div style=&quot;box-sizing: border-box ; width: 100% ; background: #e4e4e4 ; padding: 2px&quot;&gt;Tablename&lt;/div&gt;&lt;table style=&quot;width: 100% ; font-size: 1em&quot; cellpadding=&quot;2&quot; cellspacing=&quot;0&quot;&gt;&lt;tbody&gt;&lt;tr&gt;&lt;td&gt;PK&lt;/td&gt;&lt;td&gt;uniqueId&lt;/td&gt;&lt;/tr&gt;&lt;tr&gt;&lt;td&gt;FK1&lt;/td&gt;&lt;td&gt;foreignKey&lt;/td&gt;&lt;/tr&gt;&lt;tr&gt;&lt;td&gt;&lt;/td&gt;&lt;td&gt;fieldname&lt;/td&gt;&lt;/tr&gt;&lt;tr&gt;&lt;td&gt;&lt;br&gt;&lt;/td&gt;&lt;td&gt;fieldname&lt;br&gt;&lt;/td&gt;&lt;/tr&gt;&lt;/tbody&gt;&lt;/table&gt;" style="verticalAlign=top;align=left;overflow=fill;html=1;rounded=0;shadow=0;comic=0;labelBackgroundColor=none;strokeWidth=1;fontFamily=Verdana;fontSize=12" parent="1" vertex="1">
          <mxGeometry x="110" y="540" width="180" height="90" as="geometry" />
        </mxCell>
        <mxCell id="2ed32ef02a7f4228-4" value="&lt;div style=&quot;box-sizing: border-box ; width: 100% ; background: #e4e4e4 ; padding: 2px&quot;&gt;Tablename&lt;/div&gt;&lt;table style=&quot;width: 100% ; font-size: 1em&quot; cellpadding=&quot;2&quot; cellspacing=&quot;0&quot;&gt;&lt;tbody&gt;&lt;tr&gt;&lt;td&gt;PK&lt;/td&gt;&lt;td&gt;uniqueId&lt;/td&gt;&lt;/tr&gt;&lt;tr&gt;&lt;td&gt;FK1&lt;/td&gt;&lt;td&gt;foreignKey&lt;/td&gt;&lt;/tr&gt;&lt;tr&gt;&lt;td&gt;&lt;/td&gt;&lt;td&gt;fieldname&lt;/td&gt;&lt;/tr&gt;&lt;tr&gt;&lt;td&gt;&lt;br&gt;&lt;/td&gt;&lt;td&gt;fieldname&lt;br&gt;&lt;/td&gt;&lt;/tr&gt;&lt;/tbody&gt;&lt;/table&gt;" style="verticalAlign=top;align=left;overflow=fill;html=1;rounded=0;shadow=0;comic=0;labelBackgroundColor=none;strokeWidth=1;fontFamily=Verdana;fontSize=12" parent="1" vertex="1">
          <mxGeometry x="110" y="410" width="180" height="90" as="geometry" />
        </mxCell>
        <mxCell id="2ed32ef02a7f4228-7" value="&lt;div style=&quot;box-sizing: border-box ; width: 100% ; background: #e4e4e4 ; padding: 2px&quot;&gt;Tablename&lt;/div&gt;&lt;table style=&quot;width: 100% ; font-size: 1em&quot; cellpadding=&quot;2&quot; cellspacing=&quot;0&quot;&gt;&lt;tbody&gt;&lt;tr&gt;&lt;td&gt;PK&lt;/td&gt;&lt;td&gt;uniqueId&lt;/td&gt;&lt;/tr&gt;&lt;tr&gt;&lt;td&gt;FK1&lt;/td&gt;&lt;td&gt;foreignKey&lt;/td&gt;&lt;/tr&gt;&lt;tr&gt;&lt;td&gt;&lt;/td&gt;&lt;td&gt;fieldname&lt;/td&gt;&lt;/tr&gt;&lt;tr&gt;&lt;td&gt;&lt;br&gt;&lt;/td&gt;&lt;td&gt;fieldname&lt;br&gt;&lt;/td&gt;&lt;/tr&gt;&lt;tr&gt;&lt;td&gt;FK1&lt;br&gt;&lt;/td&gt;&lt;td&gt;foreignKey&lt;br&gt;&lt;/td&gt;&lt;/tr&gt;&lt;/tbody&gt;&lt;/table&gt;" style="verticalAlign=top;align=left;overflow=fill;html=1;rounded=0;shadow=0;comic=0;labelBackgroundColor=none;strokeWidth=1;fontFamily=Verdana;fontSize=12" parent="1" vertex="1">
          <mxGeometry x="460" y="680" width="180" height="110" as="geometry" />
        </mxCell>
        <mxCell id="2ed32ef02a7f4228-17" style="edgeStyle=orthogonalEdgeStyle;html=1;entryX=0.5;entryY=0;labelBackgroundColor=none;startArrow=ERmandOne;endArrow=ERoneToMany;fontFamily=Verdana;fontSize=12;align=left;dashed=1;" parent="1" source="2ed32ef02a7f4228-8" target="2ed32ef02a7f4228-7" edge="1">
          <mxGeometry relative="1" as="geometry" />
        </mxCell>
        <mxCell id="2ed32ef02a7f4228-8" value="&lt;div style=&quot;box-sizing: border-box ; width: 100% ; background: #e4e4e4 ; padding: 2px&quot;&gt;Tablename&lt;/div&gt;&lt;table style=&quot;width: 100% ; font-size: 1em&quot; cellpadding=&quot;2&quot; cellspacing=&quot;0&quot;&gt;&lt;tbody&gt;&lt;tr&gt;&lt;td&gt;PK&lt;/td&gt;&lt;td&gt;uniqueId&lt;/td&gt;&lt;/tr&gt;&lt;tr&gt;&lt;td&gt;FK1&lt;/td&gt;&lt;td&gt;foreignKey&lt;/td&gt;&lt;/tr&gt;&lt;tr&gt;&lt;td&gt;&lt;/td&gt;&lt;td&gt;fieldname&lt;/td&gt;&lt;/tr&gt;&lt;tr&gt;&lt;td&gt;FK1&lt;br&gt;&lt;/td&gt;&lt;td&gt;foreignKey&lt;br&gt;&lt;/td&gt;&lt;/tr&gt;&lt;tr&gt;&lt;td&gt;FK1&lt;br&gt;&lt;/td&gt;&lt;td&gt;foreignKey&lt;br&gt;&lt;/td&gt;&lt;/tr&gt;&lt;tr&gt;&lt;td&gt;FK1&lt;br&gt;&lt;/td&gt;&lt;td&gt;foreignKey&lt;br&gt;&lt;/td&gt;&lt;/tr&gt;&lt;tr&gt;&lt;td&gt;FK1&lt;br&gt;&lt;/td&gt;&lt;td&gt;foreignKey&lt;br&gt;&lt;/td&gt;&lt;/tr&gt;&lt;tr&gt;&lt;td&gt;FK1&lt;br&gt;&lt;/td&gt;&lt;td&gt;foreignKey&lt;br&gt;&lt;/td&gt;&lt;/tr&gt;&lt;tr&gt;&lt;td&gt;FK1&lt;br&gt;&lt;/td&gt;&lt;td&gt;foreignKey&lt;br&gt;&lt;/td&gt;&lt;/tr&gt;&lt;tr&gt;&lt;td&gt;FK1&lt;br&gt;&lt;/td&gt;&lt;td&gt;foreignKey&lt;br&gt;&lt;/td&gt;&lt;/tr&gt;&lt;tr&gt;&lt;td&gt;FK1&lt;br&gt;&lt;/td&gt;&lt;td&gt;foreignKey&lt;br&gt;&lt;/td&gt;&lt;/tr&gt;&lt;tr&gt;&lt;td&gt;&lt;br&gt;&lt;/td&gt;&lt;td&gt;fieldname&lt;br&gt;&lt;/td&gt;&lt;/tr&gt;&lt;tr&gt;&lt;td&gt;&lt;br&gt;&lt;/td&gt;&lt;td&gt;fieldname&lt;br&gt;&lt;/td&gt;&lt;/tr&gt;&lt;tr&gt;&lt;td&gt;FK1&lt;br&gt;&lt;/td&gt;&lt;td&gt;foreignKey&lt;br&gt;&lt;/td&gt;&lt;/tr&gt;&lt;tr&gt;&lt;td&gt;&lt;br&gt;&lt;/td&gt;&lt;td&gt;fieldname&lt;br&gt;&lt;/td&gt;&lt;/tr&gt;&lt;tr&gt;&lt;td&gt;&lt;br&gt;&lt;/td&gt;&lt;td&gt;fieldname&lt;br&gt;&lt;/td&gt;&lt;/tr&gt;&lt;tr&gt;&lt;td&gt;FK1&lt;br&gt;&lt;/td&gt;&lt;td&gt;foreignKey&lt;br&gt;&lt;/td&gt;&lt;/tr&gt;&lt;/tbody&gt;&lt;/table&gt;" style="verticalAlign=top;align=left;overflow=fill;html=1;rounded=0;shadow=0;comic=0;labelBackgroundColor=none;strokeWidth=1;fontFamily=Verdana;fontSize=12" parent="1" vertex="1">
          <mxGeometry x="460" y="280" width="180" height="330" as="geometry" />
        </mxCell>
        <mxCell id="2ed32ef02a7f4228-10" value="&lt;div style=&quot;box-sizing: border-box ; width: 100% ; background: #e4e4e4 ; padding: 2px&quot;&gt;Geographic&lt;/div&gt;&lt;table style=&quot;width: 100%&quot; cellpadding=&quot;2&quot; cellspacing=&quot;0&quot;&gt;&lt;tbody&gt;&lt;tr&gt;&lt;td&gt;PK&lt;/td&gt;&lt;td&gt;zipcode&lt;/td&gt;&lt;/tr&gt;&lt;tr&gt;&lt;td&gt;FK1&lt;/td&gt;&lt;td&gt;city&lt;/td&gt;&lt;/tr&gt;&lt;tr&gt;&lt;td&gt;&lt;/td&gt;&lt;td&gt;county_name&lt;br&gt;&lt;/td&gt;&lt;/tr&gt;&lt;tr&gt;&lt;td&gt;&lt;br&gt;&lt;/td&gt;&lt;td&gt;population&lt;/td&gt;&lt;/tr&gt;&lt;tr&gt;&lt;td&gt;&lt;br&gt;&lt;/td&gt;&lt;td&gt;population_rank&lt;br&gt;&lt;/td&gt;&lt;/tr&gt;&lt;tr&gt;&lt;td&gt;&lt;br&gt;&lt;/td&gt;&lt;td&gt;city_name&lt;/td&gt;&lt;/tr&gt;&lt;tr&gt;&lt;td&gt;&lt;br&gt;&lt;/td&gt;&lt;td&gt;aland&lt;/td&gt;&lt;/tr&gt;&lt;tr&gt;&lt;td&gt;&lt;br&gt;&lt;/td&gt;&lt;td&gt;&lt;p style=&quot;margin: 0px ; font-stretch: normal ; line-height: normal&quot;&gt;&lt;font style=&quot;font-size: 12px&quot;&gt;median_household_income&lt;/font&gt;&lt;/p&gt;&lt;/td&gt;&lt;/tr&gt;&lt;tr&gt;&lt;td&gt;&lt;br&gt;&lt;/td&gt;&lt;td&gt;&lt;p style=&quot;margin: 0px ; font-stretch: normal ; line-height: normal&quot;&gt;&lt;font style=&quot;font-size: 12px&quot;&gt;average_household_income&lt;/font&gt;&lt;/p&gt;&lt;/td&gt;&lt;/tr&gt;&lt;tr&gt;&lt;td&gt;&lt;br&gt;&lt;/td&gt;&lt;td&gt;&lt;p style=&quot;margin: 0px&quot;&gt;&lt;font color=&quot;#000000&quot; style=&quot;font-stretch: normal ; line-height: normal ; font-size: 12px&quot;&gt;per_capita_income&lt;/font&gt;&lt;/p&gt;&lt;/td&gt;&lt;/tr&gt;&lt;tr&gt;&lt;td&gt;&lt;font style=&quot;font-size: 12px&quot;&gt;&lt;br&gt;&lt;/font&gt;&lt;/td&gt;&lt;td&gt;&lt;p style=&quot;margin: 0px&quot;&gt;&lt;font color=&quot;#000000&quot; style=&quot;font-stretch: normal ; line-height: normal ; font-size: 12px&quot;&gt;percent_of_households_with_incomes_200000_or_more&lt;/font&gt;&lt;/p&gt;&lt;/td&gt;&lt;/tr&gt;&lt;tr&gt;&lt;td&gt;&lt;font style=&quot;font-size: 12px&quot;&gt;&lt;br&gt;&lt;/font&gt;&lt;/td&gt;&lt;td&gt;&lt;p style=&quot;margin: 0px ; font-stretch: normal ; line-height: normal&quot;&gt;&lt;font style=&quot;font-size: 12px&quot;&gt;householder_under_25_years&lt;/font&gt;&lt;/p&gt;&lt;p style=&quot;margin: 0px ; font-stretch: normal ; line-height: normal&quot;&gt;&lt;font style=&quot;font-size: 12px&quot;&gt;householder_25_to_44_years&lt;/font&gt;&lt;/p&gt;&lt;p style=&quot;margin: 0px&quot;&gt;&lt;font color=&quot;#000000&quot; style=&quot;font-stretch: normal ; line-height: normal ; font-size: 12px&quot;&gt;householder_45_to_64_years&lt;/font&gt;&lt;/p&gt;&lt;p style=&quot;margin: 0px&quot;&gt;&lt;font color=&quot;#000000&quot; style=&quot;font-stretch: normal ; line-height: normal ; font-size: 12px&quot;&gt;&lt;/font&gt;&lt;/p&gt;&lt;p style=&quot;margin: 0px&quot;&gt;&lt;font color=&quot;#000000&quot; style=&quot;font-stretch: normal ; line-height: normal ; font-size: 12px&quot;&gt;householder_65_years_and_over&lt;/font&gt;&lt;/p&gt;&lt;p style=&quot;margin: 0px&quot;&gt;&lt;font color=&quot;#000000&quot; style=&quot;font-stretch: normal ; line-height: normal ; font-size: 12px&quot;&gt;&lt;/font&gt;&lt;/p&gt;&lt;p style=&quot;margin: 0px&quot;&gt;&lt;font color=&quot;#000000&quot; style=&quot;font-stretch: normal ; line-height: normal ; font-size: 12px&quot;&gt;hhi_total&lt;/font&gt;&lt;/p&gt;&lt;p style=&quot;margin: 0px&quot;&gt;&lt;font color=&quot;#000000&quot; style=&quot;font-stretch: normal ; line-height: normal ; font-size: 12px&quot;&gt;&lt;/font&gt;&lt;/p&gt;&lt;p style=&quot;margin: 0px&quot;&gt;&lt;font color=&quot;#000000&quot; style=&quot;font-stretch: normal ; line-height: normal ; font-size: 12px&quot;&gt;hhi_lt_25k&lt;/font&gt;&lt;/p&gt;&lt;p style=&quot;margin: 0px&quot;&gt;&lt;font color=&quot;#000000&quot; style=&quot;font-stretch: normal ; line-height: normal ; font-size: 12px&quot;&gt;&lt;/font&gt;&lt;/p&gt;&lt;p style=&quot;margin: 0px&quot;&gt;&lt;font color=&quot;#000000&quot; style=&quot;font-stretch: normal ; line-height: normal ; font-size: 12px&quot;&gt;hhi_25k_to_49k&lt;/font&gt;&lt;/p&gt;&lt;p style=&quot;margin: 0px&quot;&gt;&lt;font color=&quot;#000000&quot; style=&quot;font-stretch: normal ; line-height: normal ; font-size: 12px&quot;&gt;&lt;/font&gt;&lt;/p&gt;&lt;p style=&quot;margin: 0px&quot;&gt;&lt;font color=&quot;#000000&quot; style=&quot;font-stretch: normal ; line-height: normal ; font-size: 12px&quot;&gt;hhi_50k_to_749k&lt;/font&gt;&lt;/p&gt;&lt;p style=&quot;margin: 0px&quot;&gt;&lt;font color=&quot;#000000&quot; style=&quot;font-stretch: normal ; line-height: normal ; font-size: 12px&quot;&gt;&lt;/font&gt;&lt;/p&gt;&lt;p style=&quot;margin: 0px&quot;&gt;&lt;font color=&quot;#000000&quot; style=&quot;font-stretch: normal ; line-height: normal ; font-size: 12px&quot;&gt;hhi_75k_to_999k&lt;/font&gt;&lt;/p&gt;&lt;p style=&quot;margin: 0px&quot;&gt;&lt;font color=&quot;#000000&quot; style=&quot;font-stretch: normal ; line-height: normal ; font-size: 12px&quot;&gt;&lt;/font&gt;&lt;/p&gt;&lt;p style=&quot;margin: 0px&quot;&gt;&lt;font color=&quot;#000000&quot; style=&quot;font-stretch: normal ; line-height: normal ; font-size: 12px&quot;&gt;hhi_100k_to_1490k&lt;/font&gt;&lt;/p&gt;&lt;p style=&quot;margin: 0px&quot;&gt;&lt;font color=&quot;#000000&quot; style=&quot;font-stretch: normal ; line-height: normal ; font-size: 12px&quot;&gt;&lt;/font&gt;&lt;/p&gt;&lt;p style=&quot;margin: 0px&quot;&gt;&lt;font color=&quot;#000000&quot; style=&quot;font-stretch: normal ; line-height: normal ; font-size: 12px&quot;&gt;hhi_150k_to_1999k&lt;/font&gt;&lt;/p&gt;&lt;p style=&quot;margin: 0px&quot;&gt;&lt;font color=&quot;#000000&quot; style=&quot;font-stretch: normal ; line-height: normal ; font-size: 12px&quot;&gt;&lt;/font&gt;&lt;/p&gt;&lt;p style=&quot;margin: 0px&quot;&gt;&lt;font color=&quot;#000000&quot; style=&quot;font-stretch: normal ; line-height: normal ; font-size: 12px&quot;&gt;hhi_200k_or_more&lt;/font&gt;&lt;/p&gt;&lt;p style=&quot;margin: 0px&quot;&gt;&lt;font color=&quot;#000000&quot; style=&quot;font-stretch: normal ; line-height: normal ; font-size: 12px&quot;&gt;&lt;/font&gt;&lt;/p&gt;&lt;p style=&quot;margin: 0px&quot;&gt;&lt;font color=&quot;#000000&quot; style=&quot;font-stretch: normal ; line-height: normal ; font-size: 12px&quot;&gt;race_and_ethnicity_total&lt;/font&gt;&lt;/p&gt;&lt;p style=&quot;margin: 0px&quot;&gt;&lt;font color=&quot;#000000&quot; style=&quot;font-stretch: normal ; line-height: normal ; font-size: 12px&quot;&gt;&lt;/font&gt;&lt;/p&gt;&lt;p style=&quot;margin: 0px&quot;&gt;&lt;font color=&quot;#000000&quot; style=&quot;font-stretch: normal ; line-height: normal ; font-size: 12px&quot;&gt;population_density_sq_mi&lt;/font&gt;&lt;/p&gt;&lt;p style=&quot;margin: 0px&quot;&gt;&lt;font color=&quot;#000000&quot; style=&quot;font-stretch: normal ; line-height: normal ; font-size: 12px&quot;&gt;&lt;/font&gt;&lt;/p&gt;&lt;p style=&quot;margin: 0px&quot;&gt;&lt;font color=&quot;#000000&quot; style=&quot;font-stretch: normal ; line-height: normal ; font-size: 12px&quot;&gt;median_age&lt;/font&gt;&lt;/p&gt;&lt;p style=&quot;margin: 0px&quot;&gt;&lt;font color=&quot;#000000&quot; style=&quot;font-stretch: normal ; line-height: normal ; font-size: 12px&quot;&gt;&lt;/font&gt;&lt;/p&gt;&lt;p style=&quot;margin: 0px&quot;&gt;&lt;font color=&quot;#000000&quot; style=&quot;font-stretch: normal ; line-height: normal ; font-size: 12px&quot;&gt;educational_attainment_bachelors&lt;/font&gt;&lt;/p&gt;&lt;p style=&quot;margin: 0px&quot;&gt;&lt;font color=&quot;#000000&quot; style=&quot;font-stretch: normal ; line-height: normal ; font-size: 12px&quot;&gt;&lt;/font&gt;&lt;/p&gt;&lt;p style=&quot;margin: 0px&quot;&gt;&lt;font color=&quot;#000000&quot; style=&quot;font-stretch: normal ; line-height: normal ; font-size: 12px&quot;&gt;educational_attainment_graduate&lt;/font&gt;&lt;/p&gt;&lt;p style=&quot;margin: 0px&quot;&gt;&lt;font color=&quot;#000000&quot; style=&quot;font-stretch: normal ; line-height: normal ; font-size: 12px&quot;&gt;&lt;/font&gt;&lt;/p&gt;&lt;p style=&quot;margin: 0px&quot;&gt;&lt;font color=&quot;#000000&quot; style=&quot;font-stretch: normal ; line-height: normal ; font-size: 12px&quot;&gt;family_poverty_pct&lt;/font&gt;&lt;/p&gt;&lt;p style=&quot;margin: 0px&quot;&gt;&lt;font color=&quot;#000000&quot; style=&quot;font-stretch: normal ; line-height: normal ; font-size: 12px&quot;&gt;&lt;/font&gt;&lt;/p&gt;&lt;p style=&quot;margin: 0px&quot;&gt;&lt;font color=&quot;#000000&quot; style=&quot;font-stretch: normal ; line-height: normal ; font-size: 12px&quot;&gt;unemployment_pct&lt;/font&gt;&lt;/p&gt;&lt;p style=&quot;margin: 0px&quot;&gt;&lt;font color=&quot;#000000&quot; style=&quot;font-stretch: normal ; line-height: normal ; font-size: 12px&quot;&gt;&lt;/font&gt;&lt;/p&gt;&lt;p style=&quot;margin: 0px&quot;&gt;&lt;font color=&quot;#000000&quot; style=&quot;font-stretch: normal ; line-height: normal ; font-size: 12px&quot;&gt;housing_units&lt;/font&gt;&lt;/p&gt;&lt;p style=&quot;margin: 0px&quot;&gt;&lt;font color=&quot;#000000&quot; style=&quot;font-stretch: normal ; line-height: normal ; font-size: 12px&quot;&gt;&lt;/font&gt;&lt;/p&gt;&lt;p style=&quot;margin: 0px&quot;&gt;&lt;font color=&quot;#000000&quot; style=&quot;font-stretch: normal ; line-height: normal ; font-size: 12px&quot;&gt;median_value_of_owner_occupied_units&lt;/font&gt;&lt;/p&gt;&lt;/td&gt;&lt;/tr&gt;&lt;/tbody&gt;&lt;/table&gt;" style="verticalAlign=top;align=left;overflow=fill;html=1;rounded=0;shadow=0;comic=0;labelBackgroundColor=none;strokeWidth=1;fontFamily=Verdana;fontSize=12" parent="1" vertex="1">
          <mxGeometry x="700" y="210" width="380" height="560" as="geometry" />
        </mxCell>
        <mxCell id="2ed32ef02a7f4228-11" value="&lt;div style=&quot;box-sizing:border-box;width:100%;background:#e4e4e4;padding:2px;&quot;&gt;Tablename&lt;/div&gt;&lt;table style=&quot;width:100%;font-size:1em;&quot; cellpadding=&quot;2&quot; cellspacing=&quot;0&quot;&gt;&lt;tr&gt;&lt;td&gt;PK&lt;/td&gt;&lt;td&gt;uniqueId&lt;/td&gt;&lt;/tr&gt;&lt;tr&gt;&lt;td&gt;FK1&lt;/td&gt;&lt;td&gt;foreignKey&lt;/td&gt;&lt;/tr&gt;&lt;tr&gt;&lt;td&gt;&lt;/td&gt;&lt;td&gt;fieldname&lt;/td&gt;&lt;/tr&gt;&lt;/table&gt;" style="verticalAlign=top;align=left;overflow=fill;html=1;rounded=0;shadow=0;comic=0;labelBackgroundColor=none;strokeWidth=1;fontFamily=Verdana;fontSize=12" parent="1" vertex="1">
          <mxGeometry x="830" y="90" width="180" height="90" as="geometry" />
        </mxCell>
      </root>
    </mxGraphModel>
  </diagram>
</mxfile>
